<?xml version="1.0" encoding="utf-8"?>
<!-- Generator: Adobe Illustrator 15.0.0, SVG Export Plug-In . SVG Version: 6.00 Build 0)  -->
<!DOCTYPE svg PUBLIC "-//W3C//DTD SVG 1.1//EN" "http://www.w3.org/Graphics/SVG/1.1/DTD/svg11.dtd">
<svg version="1.1" id="Слой_1" xmlns="http://www.w3.org/2000/svg" xmlns:xlink="http://www.w3.org/1999/xlink" x="0px" y="0px"
	 width="560px" height="80px" viewBox="0 0 560 80" enable-background="new 0 0 560 80" xml:space="preserve">
<g>
	<path fill="#FFF" d="M114.809,12.072h7.559v55.986h-7.559V12.072z"/>
	<path fill="#FFF" d="M134.233,9.831l41.396,42.551v-40.31h7.646v58.579l-41.396-42.362v39.77h-7.646V9.831z"/>
	<path fill="#FFF" d="M191.274,12.072h34.233v7.646h-13.359v48.34h-7.559v-48.34h-13.315V12.072z"/>
	<path fill="#FFF" d="M233.505,12.072h31.025v7.646h-23.467v13.975h23.467v7.559h-23.467V60.5h23.467v7.559h-31.025V12.072z"/>
	<path fill="#FFF" d="M274.727,12.072h12.129c6.035,0,10.949,1.501,14.744,4.503c3.793,3.002,5.69,6.847,5.69,11.532
		c0,3.749-1.228,7.06-3.682,9.93c-2.455,2.87-6.283,4.891-11.483,6.063l16.264,23.959h-8.771l-15.53-23.027h-1.714v23.027h-7.646
		V12.072z M282.373,18.84v19.512c11.279,0.234,16.919-3.032,16.919-9.8c0-2.373-0.659-4.313-1.978-5.823
		c-1.318-1.508-3.076-2.533-5.273-3.076C289.844,19.111,286.621,18.84,282.373,18.84z"/>
	<path fill="#FFF" d="M312.08,12.16h8.072l17.581,39.652l17.711-39.652h8.14l-25.949,57.788L312.08,12.16z"/>
	<path fill="#FFF" d="M370.967,12.072h7.559v55.986h-7.559V12.072z"/>
	<path fill="#FFF" d="M390.215,12.072h31.025v7.646h-23.467v13.975h23.467v7.559h-23.467V60.5h23.467v7.559h-31.025V12.072z"/>
	<path fill="#FFF" d="M469.338,9.919l18.018,41.327l16.912-39.086h7.896l-24.808,57.656l-18.01-41.421L451.32,69.816
		L426.47,12.16h7.896l17.037,39.527L469.338,9.919z"/>
	<path fill="#FFF" d="M521.436,12.072h12.129c6.035,0,10.949,1.501,14.744,4.503c3.793,3.002,5.69,6.847,5.69,11.532
		c0,3.749-1.228,7.06-3.682,9.93c-2.455,2.87-6.283,4.891-11.483,6.063l16.264,23.959h-8.771l-15.53-23.027h-1.714v23.027h-7.646
		V12.072z M529.082,18.84v19.512c11.279,0.234,16.919-3.032,16.919-9.8c0-2.373-0.659-4.313-1.978-5.823
		c-1.318-1.508-3.076-2.533-5.273-3.076C536.553,19.111,533.33,18.84,529.082,18.84z"/>
</g>
<polygon fill="#FFF" points="97.75,42.104 49,42.104 20,56.917 20,42.104 12.75,42.104 12.75,6.104 97.75,6.104 "/>
<polygon fill="#FFF" points="49,67.509 76.959,67.509 93.591,76.004 93.591,67.509 97.75,67.509 97.75,46.861 49,46.861 "/>
</svg>
