<?xml version="1.0" encoding="utf-8"?>
<!-- Generator: Adobe Illustrator 15.0.0, SVG Export Plug-In . SVG Version: 6.00 Build 0)  -->
<!DOCTYPE svg PUBLIC "-//W3C//DTD SVG 1.1//EN" "http://www.w3.org/Graphics/SVG/1.1/DTD/svg11.dtd">
<svg version="1.1" id="Слой_1" xmlns="http://www.w3.org/2000/svg" xmlns:xlink="http://www.w3.org/1999/xlink" x="0px" y="0px"
	 width="473px" height="145.828px" viewBox="0 0 473 145.828" enable-background="new 0 0 473 145.828" xml:space="preserve">
<g>
	<path fill="#FFF" d="M18.059,77.9h7.559v55.986h-7.559V77.9z"/>
	<path fill="#FFF" d="M37.483,75.659l41.396,42.551V77.9h7.646v58.579L45.129,94.117v39.77h-7.646V75.659z"/>
	<path fill="#FFF" d="M94.524,77.9h34.233v7.646h-13.359v48.34h-7.559v-48.34H94.524V77.9z"/>
	<path fill="#FFF" d="M136.755,77.9h31.025v7.646h-23.467v13.975h23.467v7.559h-23.467v19.248h23.467v7.559h-31.025V77.9z"/>
	<path fill="#FFF" d="M177.977,77.9h12.129c6.035,0,10.949,1.501,14.744,4.503c3.793,3.002,5.69,6.847,5.69,11.532
		c0,3.749-1.228,7.06-3.682,9.93c-2.455,2.87-6.283,4.891-11.483,6.063l16.264,23.959h-8.771l-15.53-23.027h-1.714v23.027h-7.646
		V77.9z M185.623,84.668v19.512c11.279,0.234,16.919-3.032,16.919-9.8c0-2.373-0.659-4.313-1.978-5.823
		c-1.318-1.508-3.076-2.533-5.273-3.076C193.094,84.939,189.871,84.668,185.623,84.668z"/>
	<path fill="#FFF" d="M215.33,77.988h8.072l17.581,39.652l17.711-39.652h8.14l-25.949,57.788L215.33,77.988z"/>
	<path fill="#FFF" d="M274.217,77.9h7.559v55.986h-7.559V77.9z"/>
	<path fill="#FFF" d="M293.465,77.9h31.025v7.646h-23.467v13.975h23.467v7.559h-23.467v19.248h23.467v7.559h-31.025V77.9z"/>
	<path fill="#FFF" d="M372.588,75.747l18.018,41.327l16.912-39.086h7.896l-24.808,57.656l-18.01-41.421l-18.025,41.421
		L329.72,77.988h7.896l17.037,39.527L372.588,75.747z"/>
	<path fill="#FFF" d="M424.686,77.9h12.129c6.035,0,10.949,1.501,14.744,4.503c3.793,3.002,5.69,6.847,5.69,11.532
		c0,3.749-1.228,7.06-3.682,9.93c-2.455,2.87-6.283,4.891-11.483,6.063l16.264,23.959h-8.771l-15.53-23.027h-1.714v23.027h-7.646
		V77.9z M432.332,84.668v19.512c11.279,0.234,16.919-3.032,16.919-9.8c0-2.373-0.659-4.313-1.978-5.823
		c-1.318-1.508-3.076-2.533-5.273-3.076C439.803,84.939,436.58,84.668,432.332,84.668z"/>
</g>
<polygon fill="#FFF" points="280,37.505 231.25,37.505 202.25,52.317 202.25,37.505 195,37.505 195,1.505 280,1.505 "/>
<polygon fill="#FFF" points="231.25,62.909 259.209,62.909 275.841,71.404 275.841,62.909 280,62.909 280,42.262 231.25,42.262
	"/>
</svg>
