<?xml version="1.0" encoding="utf-8"?>
<!-- Generator: Adobe Illustrator 15.0.0, SVG Export Plug-In . SVG Version: 6.00 Build 0)  -->
<!DOCTYPE svg PUBLIC "-//W3C//DTD SVG 1.1//EN" "http://www.w3.org/Graphics/SVG/1.1/DTD/svg11.dtd">
<svg version="1.1" id="Слой_1" xmlns="http://www.w3.org/2000/svg" xmlns:xlink="http://www.w3.org/1999/xlink" x="0px" y="0px"
	 width="100px" height="72px" viewBox="0 0 100 72" enable-background="new 0 0 100 72" xml:space="preserve">
<g>
	<path fill="#FFF" d="M-168.441,77.443h7.559v55.986h-7.559V77.443z"/>
	<path fill="#FFF" d="M-149.018,75.202l41.396,42.551v-40.31h7.646v58.579l-41.396-42.362v39.77h-7.646V75.202z"/>
	<path fill="#FFF" d="M-91.977,77.443h34.233v7.646h-13.359v48.34h-7.559V85.09h-13.315V77.443z"/>
	<path fill="#FFF" d="M-49.745,77.443h31.025v7.646h-23.467v13.975h23.467v7.559h-23.467v19.248h23.467v7.559h-31.025V77.443z"/>
	<path fill="#FFF" d="M-8.524,77.443H3.605c6.035,0,10.949,1.501,14.744,4.503c3.793,3.002,5.69,6.847,5.69,11.532
		c0,3.749-1.228,7.06-3.682,9.93c-2.455,2.87-6.283,4.891-11.483,6.063l16.264,23.959h-8.771l-15.53-23.027h-1.714v23.027h-7.646
		V77.443z M-0.877,84.211v19.512c11.279,0.234,16.919-3.032,16.919-9.8c0-2.373-0.659-4.313-1.978-5.823
		c-1.318-1.508-3.076-2.533-5.273-3.076C6.593,84.482,3.371,84.211-0.877,84.211z"/>
	<path fill="#FFF" d="M28.83,77.531h8.072l17.581,39.652l17.711-39.652h8.14l-25.949,57.788L28.83,77.531z"/>
	<path fill="#FFF" d="M87.716,77.443h7.559v55.986h-7.559V77.443z"/>
	<path fill="#FFF" d="M106.964,77.443h31.025v7.646h-23.467v13.975h23.467v7.559h-23.467v19.248h23.467v7.559h-31.025V77.443z"/>
	<path fill="#FFF" d="M186.087,75.29l18.018,41.327l16.912-39.086h7.896l-24.808,57.656l-18.01-41.421l-18.025,41.421
		l-24.851-57.656h7.896l17.037,39.527L186.087,75.29z"/>
	<path fill="#FFF" d="M238.185,77.443h12.129c6.035,0,10.949,1.501,14.744,4.503c3.793,3.002,5.69,6.847,5.69,11.532
		c0,3.749-1.228,7.06-3.682,9.93c-2.455,2.87-6.283,4.891-11.483,6.063l16.264,23.959h-8.771l-15.53-23.027h-1.714v23.027h-7.646
		V77.443z M245.832,84.211v19.512c11.279,0.234,16.919-3.032,16.919-9.8c0-2.373-0.659-4.313-1.978-5.823
		c-1.318-1.508-3.076-2.533-5.273-3.076C253.302,84.482,250.08,84.211,245.832,84.211z"/>
</g>
<polygon fill="#FFF" points="93.5,37.048 44.75,37.048 15.75,51.86 15.75,37.048 8.5,37.048 8.5,1.048 93.5,1.048 "/>
<polygon fill="#FFF" points="44.75,62.452 72.708,62.452 89.34,70.947 89.34,62.452 93.5,62.452 93.5,41.805 44.75,41.805 "/>
</svg>
